<mxfile host="Electron" modified="2024-04-24T10:15:18.127Z" agent="Mozilla/5.0 (Windows NT 10.0; Win64; x64) AppleWebKit/537.36 (KHTML, like Gecko) draw.io/24.1.0 Chrome/120.0.6099.109 Electron/28.1.0 Safari/537.36" etag="6xrea2QTDsdmbjwggbQW" version="24.1.0" type="device">
  <diagram name="Page-1" id="7eSQWJ0iHS3bc-f31Acy">
    <mxGraphModel dx="491" dy="591" grid="1" gridSize="10" guides="1" tooltips="1" connect="1" arrows="1" fold="1" page="1" pageScale="1" pageWidth="850" pageHeight="1100" math="0" shadow="0">
      <root>
        <mxCell id="0" />
        <mxCell id="1" parent="0" />
        <mxCell id="_7xvFGk-__ZxKwtUNPZ5-5" style="edgeStyle=orthogonalEdgeStyle;rounded=0;orthogonalLoop=1;jettySize=auto;html=1;" edge="1" parent="1" source="_7xvFGk-__ZxKwtUNPZ5-1" target="_7xvFGk-__ZxKwtUNPZ5-2">
          <mxGeometry relative="1" as="geometry" />
        </mxCell>
        <mxCell id="_7xvFGk-__ZxKwtUNPZ5-1" value="" style="ellipse;fillColor=strokeColor;html=1;" vertex="1" parent="1">
          <mxGeometry x="515" y="40" width="30" height="30" as="geometry" />
        </mxCell>
        <mxCell id="_7xvFGk-__ZxKwtUNPZ5-4" value="" style="edgeStyle=orthogonalEdgeStyle;rounded=0;orthogonalLoop=1;jettySize=auto;html=1;" edge="1" parent="1" source="_7xvFGk-__ZxKwtUNPZ5-2" target="_7xvFGk-__ZxKwtUNPZ5-3">
          <mxGeometry relative="1" as="geometry" />
        </mxCell>
        <mxCell id="_7xvFGk-__ZxKwtUNPZ5-2" value="&lt;span style=&quot;font-size: 14px;&quot;&gt;HealthCare Provider&amp;nbsp;&lt;/span&gt;&lt;div&gt;&lt;span style=&quot;font-size: 14px;&quot;&gt;Order Test&lt;/span&gt;&lt;/div&gt;" style="rounded=0;whiteSpace=wrap;html=1;" vertex="1" parent="1">
          <mxGeometry x="470" y="150" width="120" height="60" as="geometry" />
        </mxCell>
        <mxCell id="_7xvFGk-__ZxKwtUNPZ5-7" value="" style="edgeStyle=orthogonalEdgeStyle;rounded=0;orthogonalLoop=1;jettySize=auto;html=1;" edge="1" parent="1" source="_7xvFGk-__ZxKwtUNPZ5-3" target="_7xvFGk-__ZxKwtUNPZ5-6">
          <mxGeometry relative="1" as="geometry" />
        </mxCell>
        <mxCell id="_7xvFGk-__ZxKwtUNPZ5-3" value="Test Select" style="whiteSpace=wrap;html=1;rounded=0;" vertex="1" parent="1">
          <mxGeometry x="470" y="250" width="120" height="60" as="geometry" />
        </mxCell>
        <mxCell id="_7xvFGk-__ZxKwtUNPZ5-9" value="" style="edgeStyle=orthogonalEdgeStyle;rounded=0;orthogonalLoop=1;jettySize=auto;html=1;" edge="1" parent="1" source="_7xvFGk-__ZxKwtUNPZ5-6" target="_7xvFGk-__ZxKwtUNPZ5-8">
          <mxGeometry relative="1" as="geometry" />
        </mxCell>
        <mxCell id="_7xvFGk-__ZxKwtUNPZ5-6" value="Schedule Appointment" style="rounded=0;whiteSpace=wrap;html=1;" vertex="1" parent="1">
          <mxGeometry x="470" y="350" width="120" height="60" as="geometry" />
        </mxCell>
        <mxCell id="_7xvFGk-__ZxKwtUNPZ5-11" value="" style="edgeStyle=orthogonalEdgeStyle;rounded=0;orthogonalLoop=1;jettySize=auto;html=1;" edge="1" parent="1" source="_7xvFGk-__ZxKwtUNPZ5-8" target="_7xvFGk-__ZxKwtUNPZ5-10">
          <mxGeometry relative="1" as="geometry" />
        </mxCell>
        <mxCell id="_7xvFGk-__ZxKwtUNPZ5-14" value="" style="edgeStyle=orthogonalEdgeStyle;rounded=0;orthogonalLoop=1;jettySize=auto;html=1;" edge="1" parent="1" source="_7xvFGk-__ZxKwtUNPZ5-8" target="_7xvFGk-__ZxKwtUNPZ5-13">
          <mxGeometry relative="1" as="geometry" />
        </mxCell>
        <mxCell id="_7xvFGk-__ZxKwtUNPZ5-8" value="" style="rhombus;whiteSpace=wrap;html=1;rounded=0;" vertex="1" parent="1">
          <mxGeometry x="475" y="480" width="110" height="40" as="geometry" />
        </mxCell>
        <mxCell id="_7xvFGk-__ZxKwtUNPZ5-17" value="" style="edgeStyle=orthogonalEdgeStyle;rounded=0;orthogonalLoop=1;jettySize=auto;html=1;" edge="1" parent="1" source="_7xvFGk-__ZxKwtUNPZ5-10" target="_7xvFGk-__ZxKwtUNPZ5-16">
          <mxGeometry relative="1" as="geometry" />
        </mxCell>
        <mxCell id="_7xvFGk-__ZxKwtUNPZ5-10" value="Appointment Approved" style="whiteSpace=wrap;html=1;rounded=0;" vertex="1" parent="1">
          <mxGeometry x="660" y="470" width="120" height="60" as="geometry" />
        </mxCell>
        <mxCell id="_7xvFGk-__ZxKwtUNPZ5-12" value="Available?" style="text;html=1;align=center;verticalAlign=middle;resizable=0;points=[];autosize=1;strokeColor=none;fillColor=none;" vertex="1" parent="1">
          <mxGeometry x="580" y="468" width="80" height="30" as="geometry" />
        </mxCell>
        <mxCell id="_7xvFGk-__ZxKwtUNPZ5-24" style="edgeStyle=orthogonalEdgeStyle;rounded=0;orthogonalLoop=1;jettySize=auto;html=1;exitX=0;exitY=0.5;exitDx=0;exitDy=0;entryX=0;entryY=0.5;entryDx=0;entryDy=0;" edge="1" parent="1" source="_7xvFGk-__ZxKwtUNPZ5-13" target="_7xvFGk-__ZxKwtUNPZ5-6">
          <mxGeometry relative="1" as="geometry" />
        </mxCell>
        <mxCell id="_7xvFGk-__ZxKwtUNPZ5-13" value="Notify Patient" style="rounded=0;whiteSpace=wrap;html=1;" vertex="1" parent="1">
          <mxGeometry x="470" y="590" width="120" height="60" as="geometry" />
        </mxCell>
        <mxCell id="_7xvFGk-__ZxKwtUNPZ5-15" value="[Deny]" style="text;html=1;align=center;verticalAlign=middle;resizable=0;points=[];autosize=1;strokeColor=none;fillColor=none;rotation=90;" vertex="1" parent="1">
          <mxGeometry x="520" y="540" width="60" height="30" as="geometry" />
        </mxCell>
        <mxCell id="_7xvFGk-__ZxKwtUNPZ5-19" value="" style="edgeStyle=orthogonalEdgeStyle;rounded=0;orthogonalLoop=1;jettySize=auto;html=1;" edge="1" parent="1" source="_7xvFGk-__ZxKwtUNPZ5-16" target="_7xvFGk-__ZxKwtUNPZ5-18">
          <mxGeometry relative="1" as="geometry" />
        </mxCell>
        <mxCell id="_7xvFGk-__ZxKwtUNPZ5-16" value="Perform Test" style="rounded=0;whiteSpace=wrap;html=1;" vertex="1" parent="1">
          <mxGeometry x="660" y="610" width="120" height="60" as="geometry" />
        </mxCell>
        <mxCell id="_7xvFGk-__ZxKwtUNPZ5-21" value="" style="edgeStyle=orthogonalEdgeStyle;rounded=0;orthogonalLoop=1;jettySize=auto;html=1;" edge="1" parent="1" source="_7xvFGk-__ZxKwtUNPZ5-18" target="_7xvFGk-__ZxKwtUNPZ5-20">
          <mxGeometry relative="1" as="geometry" />
        </mxCell>
        <mxCell id="_7xvFGk-__ZxKwtUNPZ5-18" value="Upload Result" style="whiteSpace=wrap;html=1;rounded=0;" vertex="1" parent="1">
          <mxGeometry x="660" y="750" width="120" height="60" as="geometry" />
        </mxCell>
        <mxCell id="_7xvFGk-__ZxKwtUNPZ5-23" style="edgeStyle=orthogonalEdgeStyle;rounded=0;orthogonalLoop=1;jettySize=auto;html=1;exitX=0.5;exitY=1;exitDx=0;exitDy=0;entryX=0.5;entryY=0;entryDx=0;entryDy=0;" edge="1" parent="1" source="_7xvFGk-__ZxKwtUNPZ5-20" target="_7xvFGk-__ZxKwtUNPZ5-22">
          <mxGeometry relative="1" as="geometry" />
        </mxCell>
        <mxCell id="_7xvFGk-__ZxKwtUNPZ5-20" value="Review Results" style="whiteSpace=wrap;html=1;rounded=0;" vertex="1" parent="1">
          <mxGeometry x="660" y="890" width="120" height="60" as="geometry" />
        </mxCell>
        <mxCell id="_7xvFGk-__ZxKwtUNPZ5-22" value="" style="ellipse;html=1;shape=endState;fillColor=#000000;strokeColor=#ff0000;" vertex="1" parent="1">
          <mxGeometry x="705" y="1000" width="30" height="30" as="geometry" />
        </mxCell>
        <mxCell id="_7xvFGk-__ZxKwtUNPZ5-25" value="[Re Schedule]" style="text;html=1;align=center;verticalAlign=middle;resizable=0;points=[];autosize=1;strokeColor=none;fillColor=none;rotation=-90;" vertex="1" parent="1">
          <mxGeometry x="380" y="500" width="100" height="30" as="geometry" />
        </mxCell>
      </root>
    </mxGraphModel>
  </diagram>
</mxfile>
